<svg xmlns="http://www.w3.org/2000/svg" xmlns:xlink="http://www.w3.org/1999/xlink" width="500" zoomAndPan="magnify" viewBox="0 0 375 374.999991" height="500" preserveAspectRatio="xMidYMid meet" version="1.0"><defs><g/><clipPath id="0130f972a4"><path d="M 108.550781 80.476562 L 266.800781 80.476562 L 266.800781 230 L 108.550781 230 Z M 108.550781 80.476562 " clip-rule="nonzero"/></clipPath></defs><path fill="#ccffbb" d="M 145.347656 115.734375 C 141.894531 118.109375 138.820312 120.902344 136.128906 124.109375 C 133.4375 127.316406 131.226562 130.824219 129.492188 134.632812 C 126.769531 140.636719 125.378906 147.164062 124.304688 153.65625 C 123.011719 161.484375 122.148438 169.542969 123.796875 177.300781 C 125.035156 183.140625 127.667969 188.605469 130.675781 193.761719 C 133.632812 198.816406 137.230469 203.855469 142.523438 206.386719 C 147.730469 208.875 153.796875 208.570312 159.542969 208.007812 C 175.066406 206.488281 190.554688 203.4375 206.121094 204.34375 C 209.578125 204.546875 213.035156 204.945312 216.488281 204.808594 C 219.171875 204.644531 221.832031 204.324219 224.476562 203.84375 C 228.25 203.242188 232.183594 202.578125 235.265625 200.332031 C 236.707031 199.28125 237.890625 197.929688 239.0625 196.59375 C 244.042969 190.917969 249.191406 184.929688 250.929688 177.589844 C 251.675781 174.453125 251.753906 171.203125 251.832031 167.980469 C 252.011719 160.507812 252.171875 152.875 249.914062 145.75 C 248.265625 140.539062 245.597656 131.238281 242.550781 126.695312 C 239.253906 121.808594 234.953125 119.8125 230.453125 115.957031 C 221.914062 108.675781 211.054688 107.117188 199.832031 106.519531 C 188.609375 105.921875 177.421875 107.851562 166.402344 110.039062 " fill-opacity="1" fill-rule="nonzero"/><path fill="#ccffbb" d="M 210.324219 139.074219 C 210.324219 139.304688 210.292969 139.539062 210.277344 139.769531 L 210.261719 139.769531 Z M 210.324219 139.074219 " fill-opacity="1" fill-rule="nonzero"/><path fill="#ffc089" d="M 208.441406 126.5 C 208.421875 126.210938 207.722656 125.296875 207.425781 125.199219 C 203.449219 123.863281 199.125 124.273438 194.949219 124.695312 C 190.882812 125.105469 176.535156 125.550781 175.378906 125.371094 C 173.296875 125.046875 171.285156 125.09375 169.203125 124.769531 L 168.011719 124.769531 C 167.90625 127.421875 167.796875 130.074219 167.6875 132.726562 C 167.625 134.234375 167.5625 135.746094 167.621094 137.261719 C 167.8125 142.402344 167.5 147.5625 169.765625 152.195312 C 170.558594 153.800781 172.648438 155.597656 174.03125 156.738281 C 174.886719 157.441406 179.078125 159.953125 180.148438 160.46875 C 181.363281 161.074219 183.234375 160.921875 184.566406 161.195312 C 184.808594 161.273438 185.042969 161.253906 185.269531 161.132812 C 185.34375 161.082031 187.46875 161.578125 188.515625 161.53125 C 192.433594 161.363281 196.128906 160.367188 199.597656 158.546875 C 200.683594 158.003906 201.664062 157.316406 202.542969 156.484375 C 203.554688 155.476562 207.082031 148.433594 207.753906 146.027344 C 209.515625 139.714844 208.972656 133.027344 208.441406 126.5 Z M 195.246094 150.632812 C 194.453125 151.917969 193.011719 152.652344 191.589844 153.164062 C 189.671875 153.859375 187.691406 154.269531 185.65625 154.398438 C 185.679688 154.675781 184.953125 154.289062 184.707031 154.160156 C 182.609375 153.058594 180.621094 152.355469 179.6875 150.1875 C 179.171875 148.980469 179.269531 147.292969 180.4375 146.703125 C 180.933594 146.492188 181.449219 146.402344 181.988281 146.433594 L 192.164062 146.21875 C 192.996094 146.203125 193.878906 146.199219 194.59375 146.621094 C 195.890625 147.398438 196.039062 149.351562 195.246094 150.632812 Z M 195.246094 150.632812 " fill-opacity="1" fill-rule="nonzero"/><path fill="#ffc089" d="M 203.972656 162.601562 C 202.96875 161.101562 201.996094 160.171875 201.714844 158.277344 C 201.632812 157.761719 200.929688 157.675781 200.605469 157.988281 C 197.625 160.820312 191.953125 161.441406 188.035156 161.457031 C 183.6875 161.464844 179.554688 160.523438 175.640625 158.636719 C 175.65625 157.878906 174.476562 157.582031 174.347656 158.386719 C 174.105469 159.972656 173.464844 161.382812 172.4375 162.617188 C 171.964844 163.210938 171.445312 163.734375 171.367188 164.527344 C 171.207031 166.167969 173.140625 167.929688 174.1875 168.972656 C 177.550781 172.3125 183.371094 173.289062 187.929688 173.488281 C 192.644531 173.699219 197.367188 172.347656 200.628906 168.828125 C 201.386719 168.011719 202.046875 167.121094 202.71875 166.238281 C 203.265625 165.527344 204.332031 164.570312 204.332031 163.585938 C 204.332031 163.214844 204.210938 162.886719 203.972656 162.601562 Z M 203.972656 162.601562 " fill-opacity="1" fill-rule="nonzero"/><path fill="#52993a" d="M 168.890625 160.691406 C 165.941406 161.976562 162.679688 162.683594 159.730469 163.984375 C 157.722656 164.863281 156.011719 166.355469 154.21875 167.617188 C 151.199219 169.742188 148.15625 172.074219 146.300781 175.253906 C 141.628906 183.261719 139.222656 193.121094 138.71875 202.367188 C 138.679688 203.105469 138.398438 203.863281 138.609375 204.566406 C 139.207031 206.238281 140.21875 207.597656 141.644531 208.65625 C 143.84375 210.316406 146.28125 212.648438 148.421875 214.375 C 149.773438 215.519531 151.210938 216.546875 152.726562 217.464844 C 162.234375 222.894531 172.804688 227.53125 183.738281 228.207031 C 191.621094 228.691406 199.410156 226.617188 207.03125 224.5625 C 205.457031 223.726562 203.761719 222.75 203.144531 221.085938 C 202.886719 220.222656 202.796875 219.34375 202.875 218.449219 C 203.0625 213.015625 203.910156 207.683594 205.421875 202.460938 C 205.859375 200.953125 206.34375 199.316406 205.761719 197.855469 C 205.355469 196.839844 204.453125 196.027344 204.246094 194.964844 C 203.925781 193.292969 205.378906 191.75 205.398438 190.046875 C 205.398438 188.761719 204.625 187.40625 205.257812 186.289062 C 205.726562 185.460938 206.78125 185.183594 207.480469 184.53125 C 207.945312 184.039062 208.300781 183.476562 208.539062 182.84375 C 211.492188 176.296875 214.347656 169.425781 215.21875 162.300781 C 213.019531 161.46875 209.910156 160.613281 207.652344 159.972656 C 207.351562 159.847656 207.050781 159.847656 206.75 159.972656 C 206.46875 160.191406 206.308594 160.476562 206.273438 160.832031 C 204.640625 167.371094 198.292969 170.976562 192.03125 173.535156 C 189.703125 174.5 182.390625 173.757812 181.199219 172.941406 C 178.75 171.261719 175.910156 170.222656 173.457031 168.558594 C 171 166.890625 168.851562 164.308594 168.914062 161.347656 " fill-opacity="1" fill-rule="nonzero"/><path fill="#52993a" d="M 222.398438 165.363281 C 220.933594 169.074219 219.707031 172.863281 218.726562 176.734375 C 218.527344 177.515625 218.339844 178.339844 218.5 179.128906 C 218.824219 180.710938 220.398438 181.664062 221.488281 182.859375 C 223.253906 184.785156 223.8125 187.5 224.511719 190.023438 C 224.777344 190.964844 225.082031 191.949219 225.742188 192.660156 C 226.246094 193.164062 226.816406 193.582031 227.449219 193.914062 C 231.433594 196.304688 235.097656 199.109375 238.449219 202.324219 C 240.03125 200.527344 241.390625 198.578125 242.53125 196.472656 C 242.824219 196.019531 242.980469 195.523438 242.996094 194.984375 C 242.953125 194.253906 242.398438 193.667969 241.914062 193.121094 C 240.777344 191.828125 239.875 190.390625 239.207031 188.804688 C 238.539062 187.222656 238.136719 185.578125 238.003906 183.863281 C 237.917969 182.753906 237.949219 181.613281 237.585938 180.558594 C 237.210938 179.621094 236.6875 178.777344 236.011719 178.027344 C 232.144531 173.253906 227.648438 169.167969 222.523438 165.769531 " fill-opacity="1" fill-rule="nonzero"/><path fill="#ffc089" d="M 225.820312 193.925781 C 224.429688 192.484375 223.398438 191.226562 222.804688 189.464844 C 223.246094 184.84375 220.101562 180.035156 215.273438 179.355469 C 213.335938 179.085938 211.054688 179.613281 209.789062 181.183594 C 208.882812 182.3125 209.050781 184.035156 208.074219 185.019531 C 207.347656 185.753906 206.253906 186.054688 205.738281 187.015625 C 205.289062 187.847656 205.441406 188.621094 205.628906 189.503906 C 205.835938 190.46875 205.972656 190.828125 205.667969 191.785156 C 205.496094 192.328125 205.25 192.808594 205.078125 193.335938 C 204.875 193.820312 204.753906 194.320312 204.710938 194.84375 C 204.675781 197.4375 206.882812 197.382812 208.816406 197.09375 C 209.804688 196.933594 210.785156 196.953125 211.765625 197.148438 C 212.742188 197.34375 213.65625 197.703125 214.503906 198.230469 C 216.171875 199.261719 216.929688 200.847656 218.054688 202.351562 C 219.179688 203.855469 220.921875 204.925781 222.84375 204 C 225.082031 202.90625 226.875 199.46875 227.039062 197.078125 C 227.085938 196.488281 227.003906 195.917969 226.789062 195.367188 C 226.574219 194.8125 226.253906 194.332031 225.820312 193.925781 Z M 225.820312 193.925781 " fill-opacity="1" fill-rule="nonzero"/><path fill="#6b503b" d="M 208.328125 198.65625 C 207.011719 199.726562 206.882812 201.628906 206.554688 203.285156 C 206.007812 206.035156 204.65625 208.554688 203.625 211.164062 C 202.597656 213.777344 201.882812 216.679688 202.671875 219.375 C 203.058594 220.691406 203.898438 221.984375 205.195312 222.449219 C 205.871094 222.65625 206.5625 222.730469 207.265625 222.675781 C 208.972656 222.640625 210.746094 222.464844 212.191406 221.566406 C 213.636719 220.664062 214.632812 218.835938 214.066406 217.234375 C 213.542969 215.742188 211.917969 214.910156 211.164062 213.519531 C 210.457031 212.214844 210.617188 210.625 210.855469 209.175781 C 211.367188 206.039062 212.148438 202.96875 213.203125 199.96875 C 213.355469 199.523438 213.523438 199.039062 213.367188 198.597656 C 213.132812 197.910156 212.300781 197.664062 211.582031 197.578125 C 210.507812 197.441406 209.429688 197.441406 208.355469 197.578125 " fill-opacity="1" fill-rule="nonzero"/><path fill="#6b503b" d="M 217.546875 179.949219 C 220.875 170.90625 223.535156 161.671875 225.527344 152.246094 C 225.691406 151.464844 225.851562 150.640625 225.578125 149.890625 C 225.109375 148.605469 223.613281 148.066406 222.292969 147.6875 C 221.933594 147.535156 221.570312 147.523438 221.203125 147.65625 C 220.96875 147.808594 220.796875 148.007812 220.679688 148.257812 C 217.960938 152.949219 216.625 158.289062 215.320312 163.550781 L 212.625 174.449219 C 212.277344 175.855469 212.070312 177.660156 213.269531 178.460938 C 214.320312 179.160156 215.894531 178.636719 216.875 179.425781 " fill-opacity="1" fill-rule="nonzero"/><path fill="#6b503b" d="M 221.535156 138.804688 L 219.457031 143.246094 C 219.242188 143.710938 218.167969 145.433594 218.464844 145.839844 C 218.578125 145.996094 219.847656 146.445312 220.015625 146.542969 C 222.238281 147.796875 224.355469 147.363281 226.765625 148.203125 C 227.757812 148.546875 229.050781 148.777344 229.695312 147.945312 C 229.894531 147.640625 230.027344 147.308594 230.085938 146.945312 C 230.503906 145.234375 230.910156 143.511719 231.308594 141.789062 C 231.441406 141.394531 231.449219 140.996094 231.328125 140.597656 C 231.167969 140.292969 230.9375 140.050781 230.640625 139.875 C 229.449219 139.042969 228.164062 138.402344 226.78125 137.960938 C 225.398438 137.515625 223.980469 137.285156 222.527344 137.269531 " fill-opacity="1" fill-rule="nonzero"/><path fill="#ffc035" d="M 136.875 143.359375 C 133.675781 143.359375 130.386719 145.242188 127.472656 146.375 C 126.457031 146.769531 125.152344 147.085938 124.210938 147.726562 C 124.421875 145.078125 124.464844 142.410156 123.933594 139.796875 C 123.433594 137.335938 122.359375 133.917969 119.703125 133.046875 C 119.527344 133 119.359375 133.019531 119.199219 133.109375 C 119.042969 133.199219 118.9375 133.332031 118.886719 133.511719 C 118.023438 138.835938 117.226562 145.246094 121.402344 149.492188 C 121.773438 149.871094 122.175781 150.210938 122.609375 150.519531 C 122.609375 150.570312 122.609375 150.613281 122.609375 150.660156 C 122.542969 151.273438 123.226562 151.4375 123.636719 151.15625 C 124.453125 151.582031 125.308594 151.886719 126.210938 152.078125 C 127.109375 152.269531 128.015625 152.335938 128.933594 152.277344 C 129.851562 152.222656 130.746094 152.042969 131.613281 151.742188 C 132.480469 151.445312 133.292969 151.035156 134.050781 150.515625 C 135.121094 149.757812 136.132812 148.933594 137.085938 148.03125 C 137.824219 147.363281 139.277344 146.257812 139.53125 145.203125 C 139.921875 143.632812 138.085938 143.355469 136.875 143.359375 Z M 136.875 143.359375 " fill-opacity="1" fill-rule="nonzero"/><path fill="#ffc035" d="M 134.113281 161.078125 C 133.871094 158.1875 130.703125 160.503906 129.496094 161.398438 C 126.730469 163.480469 124.609375 166.078125 123.132812 169.195312 C 122.339844 168.519531 121.445312 168.03125 120.667969 167.289062 C 119.699219 166.359375 119.035156 165.152344 118.007812 164.246094 C 116.136719 162.59375 113.730469 161.691406 111.425781 160.820312 C 110.875 160.613281 110.375 161.328125 110.671875 161.785156 C 113.65625 166.460938 116.882812 174.203125 123.449219 174.1875 C 123.59375 174.191406 123.726562 174.152344 123.84375 174.0625 C 123.957031 173.972656 124.03125 173.859375 124.0625 173.714844 C 129.363281 172.199219 134.585938 166.871094 134.113281 161.078125 Z M 134.113281 161.078125 " fill-opacity="1" fill-rule="nonzero"/><path fill="#ffc035" d="M 134.96875 177.8125 C 134.296875 178.203125 133.582031 179.472656 133.167969 180.082031 C 132.34375 181.304688 131.628906 182.589844 131.027344 183.9375 C 130.082031 186.074219 129.433594 188.300781 129.089844 190.609375 C 127.425781 188.964844 125.539062 187.625 123.433594 186.589844 C 121.328125 185.558594 119.113281 184.882812 116.789062 184.570312 C 116.679688 184.558594 116.574219 184.570312 116.46875 184.605469 C 116.367188 184.640625 116.273438 184.691406 116.195312 184.765625 C 116.113281 184.839844 116.054688 184.925781 116.011719 185.027344 C 115.96875 185.125 115.949219 185.230469 115.953125 185.339844 C 115.480469 184.964844 114.609375 185.308594 114.882812 185.980469 C 116.820312 190.65625 120.882812 194.050781 125.988281 194.695312 C 128.199219 194.980469 131.230469 194.902344 133.132812 193.578125 C 135.03125 192.253906 136.089844 189.550781 136.757812 187.46875 C 137.203125 186.070312 138.855469 175.574219 134.96875 177.8125 Z M 134.96875 177.8125 " fill-opacity="1" fill-rule="nonzero"/><path fill="#ffc035" d="M 160.589844 145.804688 C 160.496094 145.648438 160.359375 145.546875 160.183594 145.503906 C 160.007812 145.457031 159.839844 145.476562 159.679688 145.566406 C 157.847656 146.71875 157.039062 148.546875 156.484375 150.578125 C 155.660156 153.636719 154.984375 156.753906 154.261719 159.84375 C 152.242188 158.308594 150.789062 156.027344 148.382812 155.023438 C 145.542969 153.84375 141.820312 153.992188 138.804688 153.667969 C 138.191406 153.601562 137.984375 154.414062 138.332031 154.796875 C 140.644531 157.335938 142.820312 160.34375 146.097656 161.679688 C 149.097656 162.902344 152.386719 162.789062 155.515625 162.183594 C 155.628906 162.183594 155.738281 162.15625 155.835938 162.101562 C 158.652344 160.5625 160.355469 157.878906 161.105469 154.824219 C 161.789062 152.078125 162.4375 148.21875 160.589844 145.804688 Z M 160.589844 145.804688 " fill-opacity="1" fill-rule="nonzero"/><path fill="#ffc035" d="M 260.460938 186.339844 C 259.199219 184.203125 255.28125 185.695312 253.640625 186.300781 C 250.914062 187.285156 248.460938 188.730469 246.277344 190.632812 C 246.257812 189.308594 246.089844 188.003906 245.773438 186.71875 C 245.457031 185.433594 245 184.199219 244.40625 183.011719 C 243.8125 181.828125 243.09375 180.726562 242.25 179.703125 C 241.40625 178.679688 240.460938 177.761719 239.410156 176.953125 C 239.070312 176.691406 238.375 176.6875 238.296875 177.242188 C 237.390625 183.789062 238.910156 190.613281 244.691406 194.484375 C 244.820312 194.578125 244.964844 194.613281 245.125 194.585938 C 245.28125 194.5625 245.40625 194.484375 245.5 194.351562 C 245.625 194.539062 245.800781 194.617188 246.027344 194.59375 C 249.667969 194.359375 253.078125 193.355469 256.257812 191.574219 C 257.722656 190.75 261.816406 188.644531 260.460938 186.339844 Z M 260.460938 186.339844 " fill-opacity="1" fill-rule="nonzero"/><path fill="#ffc035" d="M 265.957031 161.320312 C 265.953125 161.136719 265.886719 160.984375 265.757812 160.855469 C 265.628906 160.730469 265.476562 160.664062 265.292969 160.65625 C 262.65625 160.335938 259.421875 163.351562 257.460938 164.804688 C 255.285156 166.367188 253.398438 168.21875 251.800781 170.359375 C 250.480469 167.332031 248.628906 164.675781 246.242188 162.390625 C 245.042969 161.257812 241.078125 157.460938 240.492188 161.011719 C 239.964844 164.242188 242.179688 167.832031 244.042969 170.25 C 246.21875 173.078125 248.910156 174.890625 252.539062 173.96875 C 252.707031 174.128906 252.90625 174.179688 253.132812 174.121094 C 256.40625 173.367188 259.632812 172.480469 262.003906 169.941406 C 264.148438 167.660156 266.105469 164.554688 265.957031 161.320312 Z M 265.957031 161.320312 " fill-opacity="1" fill-rule="nonzero"/><path fill="#ffc035" d="M 257.335938 135.488281 C 255.832031 132.664062 253.609375 135.742188 252.753906 137.394531 C 252.023438 138.824219 251.574219 140.335938 251.414062 141.929688 C 251.210938 143.898438 251.652344 145.855469 251.363281 147.792969 C 250.320312 147.011719 249.207031 146.34375 248.03125 145.777344 C 246.855469 145.214844 245.632812 144.769531 244.371094 144.441406 C 243.105469 144.117188 241.824219 143.914062 240.519531 143.835938 C 239.21875 143.757812 237.917969 143.804688 236.625 143.980469 C 236.191406 144.039062 235.707031 144.523438 236.050781 144.976562 C 236.863281 146.066406 237.792969 147.042969 238.839844 147.910156 C 239.886719 148.777344 241.019531 149.511719 242.242188 150.113281 C 243.464844 150.714844 244.738281 151.164062 246.066406 151.460938 C 247.394531 151.761719 248.742188 151.902344 250.101562 151.882812 C 250.324219 152.046875 250.554688 152.0625 250.796875 151.929688 L 250.957031 151.847656 L 251.101562 151.847656 C 251.371094 151.835938 251.558594 151.707031 251.667969 151.460938 C 252.894531 150.753906 253.976562 149.871094 254.921875 148.816406 C 255.863281 147.761719 256.617188 146.589844 257.183594 145.296875 C 258.410156 142.453125 258.84375 138.316406 257.335938 135.488281 Z M 257.335938 135.488281 " fill-opacity="1" fill-rule="nonzero"/><path fill="#ffc035" d="M 232.347656 121.621094 C 229.121094 114.820312 223.433594 109.84375 217.765625 105.066406 C 214.695312 102.496094 211.703125 99.859375 208.8125 97.070312 C 205.925781 94.285156 202.652344 92.015625 199.230469 89.820312 L 193.484375 86.140625 C 191.726562 85.015625 189.742188 83.226562 187.726562 82.636719 C 186.421875 82.257812 185.304688 82.921875 184.179688 83.53125 C 182.292969 84.5625 180.449219 85.671875 178.640625 86.832031 C 171.632812 91.320312 165.285156 96.597656 159.601562 102.667969 C 156.296875 106.203125 153.53125 110.429688 149.722656 113.464844 C 147.253906 115.429688 144.238281 117.023438 143.125 120.058594 C 142.746094 119.992188 142.351562 120.195312 142.414062 120.671875 C 142.757812 123.269531 147.160156 123.246094 149.117188 123.539062 C 152.726562 124.023438 156.355469 124.246094 160 124.203125 C 168.066406 124.203125 176.097656 123.753906 184.179688 124.289062 C 192.257812 124.824219 200.34375 125.800781 208.460938 125.773438 C 212.113281 125.785156 215.75 125.53125 219.363281 125.011719 C 223.480469 124.402344 227.578125 122.652344 231.742188 122.617188 C 232.003906 122.625 232.203125 122.519531 232.335938 122.296875 C 232.472656 122.074219 232.472656 121.847656 232.347656 121.621094 Z M 232.347656 121.621094 " fill-opacity="1" fill-rule="nonzero"/><path fill="#6b503b" d="M 220.753906 139.4375 C 217.628906 138.019531 214.355469 137.429688 210.929688 137.664062 C 210.496094 137.660156 210.09375 137.765625 209.71875 137.988281 C 209.179688 138.378906 209.058594 139.121094 208.984375 139.785156 C 208.554688 143.5625 208.132812 147.339844 207.71875 151.113281 C 207.429688 153.726562 206.277344 157.492188 208.234375 159.261719 C 209.328125 160.253906 211.867188 159.882812 213.300781 160.277344 C 218.808594 161.808594 223.667969 164.503906 227.867188 168.375 C 228.53125 168.988281 229.449219 169.679688 230.253906 169.257812 C 230.582031 169.050781 230.832031 168.773438 231.007812 168.429688 C 234.175781 163.34375 236.710938 157.957031 238.605469 152.273438 C 238.847656 151.703125 238.953125 151.113281 238.929688 150.5 C 238.847656 149.792969 238.429688 149.183594 238.023438 148.605469 C 235.734375 145.355469 232.734375 141.738281 228.757812 141.972656 " fill-opacity="1" fill-rule="nonzero"/><path fill="#52993a" d="M 229.027344 195.59375 C 228.394531 197.632812 227.414062 199.492188 226.082031 201.164062 C 224.753906 202.839844 223.164062 204.21875 221.316406 205.300781 C 220.65625 205.6875 219.902344 206.105469 219.703125 206.835938 C 219.503906 207.570312 219.972656 208.386719 220.433594 209.042969 C 222.992188 212.671875 225.644531 216.269531 228.824219 219.367188 C 232 222.464844 235.78125 225.070312 240.035156 226.378906 C 241.621094 226.871094 243.3125 227.179688 244.945312 226.863281 C 248.113281 226.25 250.453125 223.328125 251.226562 220.214844 C 252 217.101562 251.484375 213.808594 250.722656 210.6875 C 249.464844 205.523438 247.589844 200.597656 245.089844 195.902344 L 242.308594 198.953125 C 241.082031 200.304688 239.441406 201.785156 237.675781 201.300781 C 237.179688 201.140625 236.722656 200.90625 236.300781 200.597656 L 229.695312 196.296875 " fill-opacity="1" fill-rule="nonzero"/><path fill="#8c4038" d="M 180.785156 146.355469 C 180.703125 148.8125 180.238281 151.367188 182.265625 152.761719 C 184.296875 154.15625 188.757812 154.34375 191.03125 153.402344 C 192.183594 152.90625 193.152344 152.171875 193.933594 151.191406 C 194.71875 150.210938 195.222656 149.105469 195.449219 147.875 C 192.988281 147.625 190.503906 147.910156 188.027344 147.960938 C 185.550781 148.007812 182.988281 147.796875 180.796875 146.648438 " fill-opacity="1" fill-rule="nonzero"/><path fill="#ffffff" d="M 196.25 148.25 C 196.042969 146.382812 191.328125 146.292969 190.226562 146.148438 C 186.574219 145.65625 182.964844 145.46875 179.34375 146.277344 C 178.507812 146.464844 178.863281 147.742188 179.695312 147.5625 L 179.847656 147.53125 L 180.300781 148.378906 C 179.863281 148.640625 179.800781 149.429688 180.433594 149.597656 C 183.828125 150.507812 187.269531 150.757812 190.761719 150.355469 C 191.871094 150.214844 196.453125 150.085938 196.25 148.25 Z M 196.25 148.25 " fill-opacity="1" fill-rule="nonzero"/><path fill="#ffc089" d="M 210.191406 131.5 C 209.5 131.457031 209.371094 132.308594 209.792969 132.671875 L 209.699219 132.785156 C 209.613281 132.714844 209.519531 132.671875 209.410156 132.648438 C 209.304688 132.628906 209.195312 132.632812 209.09375 132.667969 C 208.988281 132.699219 208.898438 132.753906 208.820312 132.832031 C 208.746094 132.910156 208.691406 133.003906 208.664062 133.109375 C 208.382812 134.246094 208.242188 135.402344 208.234375 136.574219 C 208.234375 137.464844 208.234375 139.246094 208.707031 140.039062 C 209.335938 141.097656 210.5 140.394531 211.246094 139.71875 C 213.238281 137.890625 213.910156 131.746094 210.191406 131.5 Z M 210.191406 131.5 " fill-opacity="1" fill-rule="nonzero"/><path fill="#ffc089" d="M 167.710938 134.597656 C 167.695312 134.484375 167.65625 134.382812 167.59375 134.292969 C 167.53125 134.199219 167.453125 134.125 167.355469 134.066406 C 167.257812 134.011719 167.15625 133.976562 167.042969 133.964844 C 166.933594 133.957031 166.824219 133.96875 166.71875 134.007812 L 166.699219 133.976562 C 167.304688 133.597656 166.957031 132.496094 166.203125 132.765625 C 164.546875 133.359375 163.742188 134.765625 163.257812 136.386719 C 162.65625 138.414062 163.257812 140.089844 164.765625 141.566406 C 165.867188 142.648438 166.796875 142.582031 167.496094 141.183594 C 168.53125 139.113281 167.972656 136.761719 167.710938 134.597656 Z M 167.710938 134.597656 " fill-opacity="1" fill-rule="nonzero"/><path fill="#967259" d="M 207.21875 198.851562 C 205.328125 203.570312 204.089844 208.449219 203.503906 213.496094 C 203.058594 217.3125 203.226562 222.171875 207.742188 223.332031 C 209.402344 223.761719 210.109375 221.207031 208.453125 220.78125 C 204.355469 219.726562 206.175781 212.746094 206.71875 209.894531 C 207.410156 206.351562 208.429688 202.90625 209.78125 199.558594 C 210.425781 197.972656 207.847656 197.285156 207.21875 198.851562 Z M 207.21875 198.851562 " fill-opacity="1" fill-rule="nonzero"/><path fill="#967259" d="M 214.496094 178.285156 C 217.664062 168.746094 219.785156 158.894531 222.183594 149.132812 C 222.585938 147.476562 220.023438 146.773438 219.617188 148.429688 C 217.21875 158.191406 215.097656 168.03125 211.933594 177.582031 C 211.394531 179.203125 213.960938 179.898438 214.496094 178.285156 Z M 214.496094 178.285156 " fill-opacity="1" fill-rule="nonzero"/><path fill="#967259" d="M 221.554688 137.316406 C 220.324219 139.992188 219.347656 142.757812 218.625 145.609375 C 218.214844 147.265625 220.773438 147.972656 221.191406 146.3125 C 221.839844 143.679688 222.730469 141.125 223.851562 138.65625 C 224.558594 137.117188 222.265625 135.761719 221.554688 137.316406 Z M 221.554688 137.316406 " fill-opacity="1" fill-rule="nonzero"/><path fill="#447233" d="M 158.488281 218.734375 L 158.488281 212.351562 C 158.488281 208.558594 158.683594 204.710938 157.867188 200.980469 C 157.71875 200.300781 156.785156 200.410156 156.578125 200.980469 C 154.679688 206.359375 153.21875 211.855469 152.199219 217.464844 C 152.0625 218.234375 153.128906 218.59375 153.425781 217.996094 L 156.859375 220.085938 C 156.75 220.203125 156.707031 220.34375 156.722656 220.503906 C 156.738281 220.664062 156.8125 220.792969 156.945312 220.886719 L 157.140625 221.046875 C 157.25 221.152344 157.378906 221.214844 157.527344 221.230469 C 157.675781 221.25 157.816406 221.222656 157.949219 221.152344 C 158.785156 220.59375 158.488281 219.648438 158.488281 218.734375 Z M 158.488281 218.734375 " fill-opacity="1" fill-rule="nonzero"/><path fill="#447233" d="M 249.59375 223.382812 C 243.625 225.8125 237.855469 222.421875 233.78125 218.140625 C 229.882812 214.050781 226.621094 209.300781 223.734375 204.46875 C 223.636719 204.3125 223.503906 204.214844 223.328125 204.167969 C 223.152344 204.121094 222.984375 204.144531 222.824219 204.230469 C 221.621094 204.734375 220.476562 205.351562 219.398438 206.082031 C 219.25 206.179688 219.15625 206.316406 219.113281 206.488281 C 219.074219 206.660156 219.097656 206.824219 219.1875 206.976562 C 219.1875 207.144531 219.25 207.285156 219.363281 207.40625 C 224.144531 212.578125 227.5 219.105469 233.238281 223.378906 C 238.15625 227.042969 245.089844 228.519531 250.234375 224.488281 C 250.75 224.089844 250.191406 223.136719 249.59375 223.382812 Z M 249.59375 223.382812 " fill-opacity="1" fill-rule="nonzero"/><path fill="#447233" d="M 223.367188 183.445312 C 223.6875 180.453125 224.71875 177.441406 225.421875 174.515625 C 226.226562 171.175781 227.136719 165.90625 222.554688 164.933594 C 222.378906 164.894531 222.214844 164.917969 222.054688 165.003906 C 221.898438 165.09375 221.792969 165.226562 221.738281 165.398438 C 220.199219 169.253906 218.691406 173.167969 217.421875 177.132812 C 217.046875 178.308594 216.917969 179.078125 217.59375 180.152344 C 218.496094 181.585938 219.792969 182.867188 220.863281 184.179688 C 220.941406 184.292969 221.050781 184.363281 221.1875 184.390625 C 221.324219 184.421875 221.449219 184.398438 221.570312 184.328125 L 222.027344 185.507812 C 222.027344 185.609375 222.054688 185.707031 222.074219 185.804688 C 222.476562 188.148438 223.410156 190.464844 224.113281 192.730469 C 224.363281 193.542969 225.648438 193.195312 225.402344 192.378906 C 224.523438 189.550781 223.039062 186.398438 223.367188 183.445312 Z M 223.367188 183.445312 " fill-opacity="1" fill-rule="nonzero"/><path fill="#447233" d="M 222.9375 213.976562 C 222.183594 211.445312 220.128906 209.53125 219.386719 207.011719 C 218.742188 204.789062 219.265625 202.570312 217.699219 200.683594 C 217.597656 200.542969 217.457031 200.46875 217.285156 200.460938 C 217.113281 200.449219 216.964844 200.507812 216.847656 200.632812 C 216.503906 199.8125 216.007812 199.089844 215.367188 198.46875 C 215.234375 198.308594 215.0625 198.242188 214.855469 198.269531 C 214.742188 198.035156 214.554688 197.941406 214.296875 197.984375 C 213.148438 198.105469 212.519531 198.726562 212.292969 199.882812 C 211.882812 201.984375 211.90625 204.171875 211.480469 206.292969 C 211.03125 208.507812 209.867188 213.980469 212.683594 215.335938 C 212.769531 215.375 212.855469 215.40625 212.945312 215.429688 C 213.421875 217.15625 214.539062 218.671875 213.914062 220.550781 C 213.886719 220.664062 213.886719 220.777344 213.917969 220.894531 C 213.949219 221.007812 214.003906 221.105469 214.089844 221.191406 C 214.171875 221.273438 214.273438 221.332031 214.386719 221.363281 C 214.5 221.394531 214.617188 221.394531 214.730469 221.367188 C 217.0625 220.722656 220.234375 220 222.199219 218.511719 C 223.542969 217.480469 223.371094 215.441406 222.9375 213.976562 Z M 222.9375 213.976562 " fill-opacity="1" fill-rule="nonzero"/><path fill="#447233" d="M 191.6875 207.40625 C 188.460938 205.246094 185.234375 203.167969 182.328125 200.582031 C 182.253906 200.515625 182.164062 200.46875 182.066406 200.4375 C 181.96875 200.410156 181.871094 200.402344 181.769531 200.417969 C 181.667969 200.433594 181.578125 200.46875 181.492188 200.527344 C 181.40625 200.582031 181.339844 200.65625 181.285156 200.742188 L 180.460938 200.300781 C 180.398438 200.097656 180.34375 199.894531 180.296875 199.6875 C 180.097656 198.859375 178.8125 199.210938 179.003906 200.042969 C 180.71875 207.171875 189.398438 212.558594 196.371094 213.019531 C 196.554688 213.015625 196.710938 212.949219 196.839844 212.824219 C 196.964844 212.695312 197.03125 212.539062 197.035156 212.359375 C 197.21875 210.226562 193.160156 208.394531 191.6875 207.40625 Z M 191.6875 207.40625 " fill-opacity="1" fill-rule="nonzero"/><path fill="#447233" d="M 187.570312 227.566406 C 186.902344 225.230469 184.546875 223.859375 182.679688 222.496094 C 179.953125 220.5 177.175781 218.609375 174.773438 216.214844 C 174.707031 216.144531 174.625 216.09375 174.53125 216.058594 C 174.4375 216.027344 174.339844 216.015625 174.242188 216.027344 C 174.140625 216.039062 174.050781 216.074219 173.96875 216.125 C 173.882812 216.179688 173.816406 216.25 173.765625 216.332031 L 173.1875 215.960938 C 173.128906 215.734375 173.082031 215.503906 173.042969 215.273438 C 172.90625 214.433594 171.625 214.789062 171.75 215.625 C 172.296875 219.027344 175.144531 222.207031 177.613281 224.472656 C 180.191406 226.859375 183.34375 228.417969 186.917969 228.40625 C 187.023438 228.40625 187.121094 228.382812 187.214844 228.335938 C 187.308594 228.292969 187.386719 228.226562 187.449219 228.144531 C 187.515625 228.0625 187.558594 227.972656 187.578125 227.871094 C 187.597656 227.765625 187.59375 227.667969 187.570312 227.566406 Z M 187.570312 227.566406 " fill-opacity="1" fill-rule="nonzero"/><path fill="#dd9f72" d="M 201.949219 158.167969 C 201.945312 158.046875 201.914062 157.9375 201.855469 157.835938 C 201.792969 157.734375 201.714844 157.65625 201.609375 157.597656 C 201.507812 157.539062 201.398438 157.507812 201.277344 157.507812 C 201.160156 157.507812 201.050781 157.539062 200.945312 157.597656 C 199.589844 158.425781 198.164062 159.113281 196.671875 159.664062 C 195.179688 160.214844 193.648438 160.613281 192.078125 160.863281 C 190.507812 161.113281 188.925781 161.210938 187.335938 161.152344 C 185.746094 161.097656 184.175781 160.886719 182.628906 160.523438 C 181.007812 160.144531 179.449219 159.59375 177.945312 158.875 C 177.230469 158.53125 176.421875 157.886719 175.59375 157.914062 C 174.769531 157.9375 174.605469 158.3125 174.253906 159.035156 C 173.332031 160.933594 172.472656 162.246094 170.558594 163.316406 C 170.402344 163.410156 170.300781 163.542969 170.253906 163.71875 C 170.207031 163.894531 170.230469 164.058594 170.320312 164.21875 C 170.851562 165.207031 171.386719 166.195312 171.933594 167.183594 C 172.058594 167.414062 172.253906 167.523438 172.515625 167.515625 C 172.777344 167.507812 172.964844 167.386719 173.078125 167.152344 C 173.265625 167.222656 173.445312 167.203125 173.613281 167.089844 C 177.515625 164.746094 181.773438 167.105469 185.847656 167.53125 C 189.78125 167.941406 193.25 166.613281 196.988281 165.65625 C 198.460938 165.28125 199.386719 165.453125 200.761719 166.039062 C 201.316406 166.28125 202.152344 166.816406 202.777344 166.742188 C 203.464844 166.664062 203.820312 166.289062 204.113281 165.609375 C 205.277344 162.847656 201.875 160.765625 201.949219 158.167969 Z M 201.949219 158.167969 " fill-opacity="1" fill-rule="nonzero"/><path fill="#dd9f72" d="M 209.273438 127.121094 C 208.195312 125.132812 206.097656 124.613281 203.96875 124.488281 C 199.988281 124.257812 195.917969 124.53125 191.9375 124.566406 L 167.148438 124.789062 C 166.292969 124.789062 166.289062 126.117188 167.148438 126.113281 L 167.300781 126.113281 L 167.480469 126.878906 C 166.890625 127.039062 166.730469 127.996094 167.449219 128.148438 C 174.359375 129.621094 181.378906 130.644531 188.449219 130.796875 C 195.160156 130.941406 202.597656 130.695312 208.875 128.09375 C 208.972656 128.066406 209.058594 128.015625 209.136719 127.945312 C 209.210938 127.878906 209.269531 127.796875 209.308594 127.703125 C 209.347656 127.609375 209.363281 127.507812 209.355469 127.40625 C 209.351562 127.304688 209.320312 127.210938 209.273438 127.121094 Z M 209.273438 127.121094 " fill-opacity="1" fill-rule="nonzero"/><path fill="#d39c2d" d="M 230.632812 116.796875 C 230.382812 116.585938 230.117188 116.566406 229.835938 116.738281 C 229.628906 116.640625 229.4375 116.660156 229.257812 116.796875 C 223.625 120.636719 216.792969 121.214844 210.152344 121.359375 C 202.875 121.519531 195.585938 121.5625 188.308594 121.5625 C 173.660156 121.5625 158.761719 121.417969 144.613281 117.210938 C 144.46875 117.171875 144.324219 117.179688 144.1875 117.238281 C 144.046875 117.292969 143.941406 117.386719 143.863281 117.515625 C 142.953125 118.980469 142.5 120.574219 142.5 122.296875 C 142.5 122.445312 142.546875 122.582031 142.636719 122.699219 C 142.726562 122.820312 142.84375 122.898438 142.988281 122.941406 C 160.769531 125.359375 178.714844 125.808594 196.636719 125.800781 C 205.492188 125.800781 214.523438 126.164062 223.339844 125.210938 C 225.234375 125.015625 227.113281 124.722656 228.976562 124.332031 C 230.214844 124.0625 231.707031 123.789062 232.59375 122.785156 C 234.492188 120.652344 232.320312 118.171875 230.632812 116.796875 Z M 230.632812 116.796875 " fill-opacity="1" fill-rule="nonzero"/><path fill="#81c469" d="M 169.773438 162.371094 C 169.6875 162.394531 169.601562 162.429688 169.515625 162.457031 L 169.085938 161.910156 C 169.199219 161.808594 169.273438 161.679688 169.300781 161.53125 C 169.328125 161.378906 169.308594 161.234375 169.238281 161.097656 C 169.167969 160.960938 169.066406 160.859375 168.925781 160.792969 C 168.789062 160.726562 168.644531 160.707031 168.492188 160.738281 C 159.074219 162.761719 149.8125 167.902344 144.9375 176.390625 C 142.5 180.652344 140.886719 185.417969 139.40625 190.085938 C 137.683594 195.515625 137.792969 201.363281 138.089844 206.996094 C 138.121094 207.601562 139.019531 207.960938 139.328125 207.320312 C 141.265625 203.363281 142.421875 199.109375 143.871094 194.96875 C 145.503906 190.300781 147.367188 185.699219 149.808594 181.390625 C 154.40625 173.289062 161.105469 166.5625 170.136719 163.632812 C 170.933594 163.382812 170.589844 162.101562 169.773438 162.371094 Z M 169.773438 162.371094 " fill-opacity="1" fill-rule="nonzero"/><path fill="#81c469" d="M 216.359375 163.464844 C 215.710938 160.332031 213.277344 160.011719 210.5 159.519531 C 209.414062 159.328125 207.238281 158.660156 206.1875 159.238281 C 205.21875 159.765625 204.921875 161.339844 204.535156 162.277344 C 204.496094 162.359375 204.480469 162.441406 204.484375 162.53125 C 204.488281 162.621094 204.511719 162.703125 204.558594 162.78125 C 204.601562 162.855469 204.660156 162.917969 204.738281 162.96875 C 204.8125 163.015625 204.894531 163.042969 204.984375 163.050781 C 204.835938 163.460938 205.027344 163.96875 205.566406 163.90625 C 209.164062 163.46875 212.703125 163.753906 216.179688 164.761719 C 216.695312 164.910156 216.453125 163.949219 216.359375 163.464844 Z M 216.359375 163.464844 " fill-opacity="1" fill-rule="nonzero"/><path fill="#ffd580" d="M 196.710938 95.484375 C 194.972656 92.660156 192.640625 90.46875 189.707031 88.910156 C 186.421875 87.199219 184.207031 88.375 181.367188 90.394531 C 175.328125 94.699219 169.46875 99.304688 164.988281 105.25 C 163.28125 107.007812 161.621094 108.820312 160.046875 110.695312 C 159.109375 111.804688 158.066406 112.988281 158.695312 114.488281 C 158.726562 114.582031 158.777344 114.667969 158.84375 114.742188 C 158.910156 114.816406 158.992188 114.875 159.085938 114.914062 C 159.179688 114.949219 159.277344 114.96875 159.378906 114.960938 C 159.480469 114.957031 159.574219 114.929688 159.664062 114.882812 C 162.359375 113.65625 164.535156 111.226562 166.808594 109.375 C 169.621094 107.0625 172.550781 104.902344 175.589844 102.898438 C 178.351562 101.082031 181.242188 99.496094 184.253906 98.136719 C 186.25 97.253906 188.164062 96.484375 190.386719 96.402344 C 192.304688 96.335938 194.199219 96.636719 196.125 96.480469 C 196.246094 96.480469 196.355469 96.449219 196.460938 96.390625 C 196.5625 96.332031 196.644531 96.25 196.703125 96.148438 C 196.765625 96.046875 196.796875 95.9375 196.796875 95.816406 C 196.796875 95.699219 196.769531 95.585938 196.710938 95.484375 Z M 196.710938 95.484375 " fill-opacity="1" fill-rule="nonzero"/><g clip-path="url(#0130f972a4)"><path fill="#3f2622" d="M 261.957031 184.195312 C 258.148438 183.230469 253.472656 184.457031 249.800781 186.914062 C 251.171875 183.328125 252.226562 179.652344 252.960938 175.882812 C 253.027344 175.832031 253.085938 175.769531 253.140625 175.703125 C 260.035156 174.808594 266.324219 167.191406 266.726562 160.453125 C 266.726562 160.28125 266.691406 160.109375 266.625 159.949219 C 266.554688 159.789062 266.460938 159.644531 266.335938 159.519531 C 266.210938 159.398438 266.066406 159.300781 265.90625 159.234375 C 265.742188 159.167969 265.574219 159.132812 265.398438 159.128906 C 261.433594 159.363281 257.277344 161.984375 254.519531 165.476562 C 254.890625 160.972656 254.625 156.503906 253.722656 152.074219 C 259.207031 147.800781 260.707031 138.050781 257.621094 132.074219 C 257.53125 131.921875 257.417969 131.792969 257.277344 131.6875 C 257.136719 131.582031 256.980469 131.507812 256.808594 131.464844 C 256.640625 131.417969 256.46875 131.40625 256.292969 131.429688 C 256.117188 131.453125 255.953125 131.507812 255.800781 131.59375 C 253.070312 133.414062 251.078125 136.710938 250.132812 140.289062 C 248.542969 135.957031 246.515625 131.835938 244.054688 127.929688 C 240.953125 123 237.265625 118.550781 232.992188 114.578125 C 228.71875 110.609375 224.003906 107.257812 218.847656 104.519531 C 217.582031 103.421875 216.328125 102.320312 215.101562 101.234375 C 208.023438 94.972656 200.777344 88.699219 192.960938 83.34375 C 191.300781 82.210938 189.164062 80.464844 187.03125 80.605469 C 184.449219 80.78125 181.824219 82.71875 179.753906 84.105469 C 171.773438 89.472656 164.519531 96.035156 157.550781 102.617188 C 156.378906 103.722656 155.871094 104.226562 154.71875 105.335938 L 153.925781 105.742188 C 150.636719 107.652344 147.53125 109.824219 144.613281 112.265625 C 141.695312 114.707031 139.007812 117.375 136.550781 120.273438 C 134.09375 123.171875 131.902344 126.257812 129.976562 129.53125 C 128.050781 132.804688 126.417969 136.214844 125.078125 139.765625 C 124.085938 136.394531 122.152344 133.339844 119.554688 131.59375 C 119.402344 131.507812 119.238281 131.453125 119.0625 131.429688 C 118.890625 131.40625 118.71875 131.417969 118.546875 131.460938 C 118.375 131.507812 118.21875 131.582031 118.078125 131.6875 C 117.9375 131.792969 117.824219 131.921875 117.734375 132.074219 C 114.65625 138.050781 116.160156 147.800781 121.632812 152.074219 C 120.730469 156.503906 120.464844 160.972656 120.835938 165.476562 C 118.078125 161.984375 113.925781 159.371094 109.960938 159.128906 C 109.78125 159.128906 109.613281 159.164062 109.449219 159.230469 C 109.285156 159.296875 109.140625 159.390625 109.015625 159.515625 C 108.890625 159.640625 108.792969 159.785156 108.722656 159.945312 C 108.65625 160.109375 108.621094 160.277344 108.621094 160.453125 C 109.019531 167.125 115.183594 174.648438 122.003906 175.667969 C 122.726562 179.410156 123.761719 183.0625 125.109375 186.628906 C 121.515625 184.378906 117.042969 183.273438 113.390625 184.195312 C 112.746094 184.355469 112.207031 185.160156 112.457031 185.824219 C 114.847656 192.039062 122.929688 197.347656 129.722656 196.347656 C 130.28125 197.308594 130.863281 198.257812 131.46875 199.191406 C 132.074219 200.125 132.703125 201.042969 133.351562 201.945312 C 134.003906 202.84375 134.679688 203.730469 135.375 204.597656 C 136.070312 205.46875 136.789062 206.316406 137.527344 207.148438 C 138.265625 207.984375 139.027344 208.796875 139.804688 209.589844 C 140.585938 210.386719 141.382812 211.160156 142.203125 211.914062 C 143.023438 212.667969 143.859375 213.402344 144.714844 214.117188 C 145.570312 214.828125 146.445312 215.519531 147.335938 216.1875 C 148.226562 216.859375 149.132812 217.503906 150.054688 218.128906 C 150.980469 218.75 151.917969 219.351562 152.871094 219.929688 C 153.824219 220.507812 154.792969 221.058594 155.773438 221.585938 C 156.753906 222.117188 157.75 222.621094 158.753906 223.097656 C 159.761719 223.578125 160.78125 224.03125 161.808594 224.460938 C 162.839844 224.886719 163.878906 225.289062 164.929688 225.664062 C 165.976562 226.042969 167.035156 226.390625 168.105469 226.714844 C 169.171875 227.039062 170.246094 227.335938 171.328125 227.605469 C 172.410156 227.875 173.5 228.117188 174.59375 228.332031 C 175.6875 228.546875 176.785156 228.734375 177.890625 228.894531 C 178.996094 229.054688 180.101562 229.1875 181.210938 229.292969 C 182.324219 229.398438 183.4375 229.476562 184.550781 229.523438 C 185.664062 229.574219 186.78125 229.59375 187.894531 229.589844 C 189.011719 229.582031 190.125 229.546875 191.238281 229.488281 C 192.355469 229.425781 193.464844 229.335938 194.574219 229.21875 C 195.683594 229.101562 196.789062 228.953125 197.890625 228.78125 C 198.992188 228.609375 200.089844 228.410156 201.183594 228.183594 C 202.273438 227.953125 203.359375 227.699219 204.441406 227.417969 C 205.519531 227.136719 206.589844 226.828125 207.652344 226.492188 C 208.71875 226.15625 209.773438 225.796875 210.816406 225.40625 C 211.863281 225.019531 212.898438 224.605469 213.921875 224.164062 C 214.945312 223.726562 215.960938 223.261719 216.960938 222.769531 C 217.960938 222.28125 218.949219 221.765625 219.925781 221.226562 C 220.898438 220.6875 221.859375 220.121094 222.808594 219.535156 C 223.640625 219.015625 224.464844 218.46875 225.28125 217.90625 C 226.597656 219.363281 227.980469 220.757812 229.433594 222.082031 C 233.671875 225.941406 239.292969 229.761719 245.347656 228.59375 C 251.492188 227.410156 253.234375 220.261719 253.195312 214.878906 C 253.152344 208.3125 250.519531 202.226562 247.578125 196.460938 C 253.894531 196.332031 260.722656 191.4375 262.878906 185.8125 C 263.140625 185.164062 262.601562 184.355469 261.957031 184.195312 Z M 263.824219 162.039062 C 262.773438 166.59375 258.535156 171.664062 254.015625 172.867188 C 254.496094 168.339844 259.25 163.25 263.824219 162.039062 Z M 111.523438 162.039062 C 116.105469 163.25 120.863281 168.335938 121.335938 172.867188 C 116.808594 171.664062 112.574219 166.59375 111.523438 162.039062 Z M 250.347656 172.902344 C 246.257812 171.0625 242.792969 165.511719 242.746094 161.011719 C 246.316406 162.835938 249.660156 166.996094 250.609375 171.058594 C 250.527344 171.667969 250.4375 172.28125 250.339844 172.902344 Z M 255.9375 134.890625 C 257.355469 139.34375 256.3125 145.867188 253.03125 149.195312 C 253.007812 149.136719 252.984375 149.078125 252.960938 149.019531 C 252.910156 148.839844 252.855469 148.660156 252.796875 148.476562 C 252.757812 148.363281 252.707031 148.253906 252.640625 148.15625 C 251.375 143.988281 252.855469 137.984375 255.929688 134.890625 Z M 250.386719 153.6875 C 250.859375 156.828125 251.097656 159.984375 251.101562 163.160156 C 251.101562 163.929688 251.082031 164.695312 251.050781 165.457031 C 248.894531 161.890625 245.53125 158.945312 241.941406 157.816406 C 241.773438 157.769531 241.601562 157.761719 241.425781 157.78125 C 241.25 157.804688 241.089844 157.859375 240.933594 157.945312 C 240.78125 158.035156 240.652344 158.144531 240.542969 158.28125 C 240.433594 158.421875 240.355469 158.574219 240.304688 158.742188 C 239.117188 164.96875 243.738281 173.28125 249.859375 175.574219 C 249.101562 179.359375 248.007812 183.042969 246.578125 186.628906 C 245.703125 182.292969 243.265625 178.117188 240.003906 175.828125 C 239.433594 175.425781 238.507812 175.71875 238.1875 176.304688 C 237.941406 176.753906 237.734375 177.21875 237.5625 177.699219 C 235.945312 175.191406 234.085938 172.875 231.980469 170.753906 C 235.3125 164.511719 238.289062 158.101562 240.917969 151.53125 C 243.890625 153.199219 247.328125 154.070312 250.386719 153.6875 Z M 243.910156 193.042969 C 243.910156 193.078125 243.890625 193.117188 243.882812 193.152344 C 240.230469 190.367188 238.503906 183.632812 239.871094 179.128906 C 242.925781 182.144531 244.859375 187.660156 244.140625 191.984375 C 244.015625 192.328125 243.941406 192.679688 243.910156 193.042969 Z M 213.730469 189.964844 C 211.851562 189.1875 209.164062 189.320312 206.90625 190.167969 C 206.761719 189.753906 206.667969 189.332031 206.621094 188.898438 C 206.507812 187.234375 207.382812 187.046875 208.6875 186.789062 C 210.726562 186.386719 212.730469 186.710938 214.652344 187.429688 C 216.265625 188.046875 216.941406 185.484375 215.359375 184.878906 C 213.671875 184.226562 211.925781 183.90625 210.113281 183.914062 C 210.183594 182.679688 210.457031 181.410156 211.773438 180.996094 C 212.992188 180.609375 214.554688 180.960938 215.746094 181.265625 C 218.875 182.074219 220.300781 184.027344 221.03125 187.050781 C 221.835938 190.40625 222.578125 194.230469 225.886719 195.789062 C 225.433594 199.542969 224.015625 203.070312 220.265625 204.03125 C 218.328125 200.175781 215.730469 195.980469 210.90625 195.699219 C 209.980469 195.636719 209.082031 195.769531 208.214844 196.089844 C 207.003906 196.550781 206.601562 197.664062 205.742188 196.15625 C 203.71875 192.558594 210.90625 191.636719 213.011719 192.503906 C 214.601562 193.175781 215.292969 190.609375 213.730469 189.964844 Z M 206.007812 158.058594 L 205.867188 158.039062 C 205.433594 157.960938 205.085938 158.101562 204.828125 158.457031 C 204.4375 158.703125 204.246094 159.054688 204.25 159.515625 C 204.234375 160.105469 204.171875 160.6875 204.058594 161.269531 C 203.242188 160.277344 203.132812 158.820312 203.054688 157.519531 C 204.1875 156.480469 205.199219 155.335938 206.085938 154.082031 C 206.039062 155.417969 205.980469 156.742188 206.007812 158.058594 Z M 203.105469 163.988281 C 200.765625 168.648438 195.226562 171.800781 190.28125 172.410156 C 183.972656 173.1875 175.46875 170.425781 172.417969 164.460938 C 173.535156 163.625 174.53125 162.578125 174.886719 161.199219 C 175.011719 160.722656 175.109375 160.242188 175.179688 159.753906 C 177.320312 161.140625 179.636719 162.113281 182.132812 162.671875 C 188.777344 164.164062 195.425781 162.941406 200.59375 159.457031 C 200.90625 161.269531 201.550781 162.96875 203.117188 164 Z M 203.070312 153.765625 C 195.269531 163.554688 177.207031 163.085938 171.101562 151.628906 C 169.199219 148.070312 168.941406 143.523438 168.484375 139.601562 C 168.28125 137.882812 168.125 136.15625 168.039062 134.425781 C 168.148438 134.265625 168.214844 134.085938 168.238281 133.890625 C 168.59375 131.292969 169.246094 128.769531 170.191406 126.324219 C 170.210938 126.285156 170.210938 126.246094 170.226562 126.207031 C 172.734375 126.257812 175.242188 126.300781 177.746094 126.332031 C 187.230469 126.4375 196.714844 126.394531 206.191406 126.136719 C 206.96875 129.269531 207.449219 132.449219 207.628906 135.671875 C 207.636719 135.957031 207.730469 136.210938 207.90625 136.433594 C 207.78125 139.492188 207.441406 142.527344 206.886719 145.539062 C 206.304688 148.601562 205.035156 151.347656 203.078125 153.78125 Z M 165.410156 134.597656 C 165.472656 135.882812 165.566406 137.160156 165.703125 138.425781 C 165.777344 139.183594 165.851562 139.960938 165.929688 140.746094 C 164.898438 139.90625 164.359375 138.171875 164.382812 137.046875 C 164.382812 136.085938 164.726562 135.269531 165.410156 134.597656 Z M 210.324219 139.09375 L 210.476562 136.460938 C 210.527344 135.289062 210.558594 134.121094 210.570312 132.949219 C 211.703125 133.527344 212.070312 135.394531 211.925781 136.507812 C 211.777344 137.644531 211.238281 138.554688 210.3125 139.234375 Z M 208.734375 149.5625 C 208.726562 149.453125 208.707031 149.347656 208.675781 149.242188 C 208.675781 149.207031 208.707031 149.171875 208.71875 149.136719 C 209.519531 147.019531 209.867188 144.667969 210.082031 142.339844 C 211.609375 141.738281 212.808594 140.746094 213.679688 139.359375 C 215.171875 139.488281 216.667969 139.621094 218.160156 139.777344 C 217.53125 141.511719 217.050781 143.285156 216.714844 145.097656 C 216.683594 145.246094 216.679688 145.394531 216.699219 145.546875 C 216.617188 145.722656 216.574219 145.90625 216.566406 146.101562 C 216.5625 146.296875 216.597656 146.484375 216.671875 146.664062 C 216.75 146.84375 216.855469 147 217 147.132812 C 217.140625 147.265625 217.304688 147.367188 217.488281 147.433594 C 217.960938 147.597656 218.4375 147.753906 218.917969 147.917969 C 217.648438 152 216.429688 156.101562 215.261719 160.21875 C 213.109375 159.46875 210.914062 158.890625 208.675781 158.476562 C 208.578125 155.484375 208.972656 152.515625 208.734375 149.539062 Z M 217.058594 163.734375 L 217.765625 161.199219 C 218.945312 157.035156 220.179688 152.882812 221.460938 148.738281 C 222.402344 149.019531 223.34375 149.289062 224.292969 149.535156 L 224.429688 149.570312 C 223.390625 153.980469 222.242188 158.367188 221.066406 162.746094 L 220.363281 165.316406 C 219.144531 169.816406 217.917969 174.289062 216.769531 178.796875 C 215.628906 178.433594 214.464844 178.238281 213.273438 178.203125 C 214.464844 173.34375 215.726562 168.511719 217.058594 163.710938 Z M 230.121094 141.410156 C 230.265625 142.535156 229.511719 144.324219 229.246094 145.433594 C 229.101562 146.039062 229.085938 146.875 228.617188 147.3125 C 228.148438 147.75 227.5625 147.601562 226.96875 147.457031 C 226.816406 147.296875 226.632812 147.199219 226.414062 147.164062 C 224.554688 146.835938 222.75 146.320312 220.996094 145.617188 C 220.761719 145.53125 220.523438 145.53125 220.289062 145.617188 C 219.992188 145.511719 219.695312 145.417969 219.398438 145.296875 C 219.832031 143.132812 220.726562 138.730469 222.761719 138.644531 C 223.929688 138.597656 225.527344 139.347656 226.636719 139.714844 C 227.28125 139.921875 227.90625 140.144531 228.53125 140.386719 C 228.976562 140.554688 229.421875 140.734375 229.863281 140.929688 C 230.550781 141.023438 230.632812 141.175781 230.121094 141.386719 Z M 231.996094 145.332031 C 232.097656 144.90625 232.261719 144.371094 232.429688 143.828125 C 233.082031 144.066406 233.703125 144.371094 234.292969 144.738281 C 235.308594 146.867188 236.761719 148.632812 238.65625 150.046875 C 236.113281 156.476562 233.222656 162.746094 229.976562 168.855469 C 227.953125 167.058594 225.777344 165.460938 223.457031 164.0625 C 224.703125 159.445312 225.921875 154.816406 227.007812 150.15625 C 228.082031 150.332031 229.160156 150.351562 230.035156 149.925781 C 231.578125 149.183594 231.660156 146.808594 231.996094 145.3125 Z M 223.429688 185.695312 C 222.75 183.171875 221.460938 181.109375 219.234375 179.824219 C 220.347656 175.4375 221.542969 171.070312 222.730469 166.699219 C 228.261719 170.1875 236.605469 181.085938 236.796875 181.191406 C 236.339844 186.457031 238.535156 192.53125 242.539062 195.441406 C 241.261719 197.445312 239.769531 199.277344 238.070312 200.941406 C 234.589844 198.472656 231.34375 195.726562 228.332031 192.703125 C 228.1875 192.5625 228.019531 192.460938 227.832031 192.394531 C 227.640625 192.332031 227.445312 192.3125 227.246094 192.335938 C 227.042969 192.359375 226.859375 192.425781 226.691406 192.535156 C 226.523438 192.644531 226.382812 192.785156 226.28125 192.957031 C 224.246094 191.382812 224.058594 188.011719 223.429688 185.695312 Z M 249.734375 150.023438 C 249.808594 150.367188 249.871094 150.71875 249.9375 151.074219 C 245.503906 151.570312 239.613281 148.613281 237.246094 144.695312 C 241.511719 144.460938 246.976562 146.597656 249.734375 150.023438 Z M 248.597656 145.488281 C 244.746094 142.792969 239.605469 141.484375 235.371094 142.273438 C 234.601562 141.828125 233.796875 141.464844 232.953125 141.191406 C 232.992188 140.710938 232.917969 140.246094 232.722656 139.800781 C 232.050781 138.4375 229.394531 137.875 228.09375 137.410156 C 226.230469 136.769531 223.832031 135.742188 221.824219 135.890625 C 220.902344 135.957031 220.152344 136.484375 219.527344 137.257812 C 217.871094 137.082031 216.21875 136.925781 214.5625 136.78125 C 214.601562 136.460938 214.621094 136.140625 214.617188 135.816406 C 214.554688 133.589844 213.34375 131.105469 211.230469 130.355469 C 211.683594 128.941406 212.070312 127.511719 212.390625 126.058594 C 212.390625 126.039062 212.390625 126.015625 212.390625 125.992188 C 217.921875 125.8125 223.464844 125.53125 228.9375 124.792969 C 230.421875 124.59375 232.414062 124.492188 233.703125 123.617188 C 235.441406 122.433594 234.21875 120.511719 233.277344 119.230469 L 233.101562 119.003906 C 236.742188 122.714844 239.871094 126.8125 242.496094 131.292969 C 245.117188 135.773438 247.152344 140.503906 248.597656 145.488281 Z M 231.980469 122.0625 C 232.164062 122.121094 231.730469 122.214844 231.980469 122.0625 Z M 144.195312 120.777344 C 144.933594 119.699219 145.730469 118.671875 146.59375 117.691406 C 149.128906 114.714844 151.863281 111.90625 154.636719 109.148438 C 154.816406 108.964844 155 108.796875 155.179688 108.613281 C 155.28125 108.535156 155.371094 108.449219 155.445312 108.347656 C 161.902344 101.914062 168.710938 95.875 175.867188 90.230469 C 178.617188 88.089844 181.457031 85.9375 184.550781 84.296875 C 185.367188 83.863281 186.304688 83.332031 187.242188 83.242188 C 187.398438 83.222656 187.394531 83.210938 187.726562 83.328125 C 188.070312 83.472656 188.402344 83.636719 188.722656 83.816406 C 195.472656 87.488281 201.480469 93.050781 207.289062 97.984375 C 210.40625 100.628906 213.511719 103.308594 216.554688 106.050781 C 216.554688 106.050781 217.824219 107.480469 218.601562 107.910156 C 221.699219 110.761719 224.730469 113.695312 227.636719 116.730469 C 228.65625 117.800781 229.667969 118.886719 230.59375 120.042969 C 230.8125 120.3125 231.292969 121.074219 231.625 121.574219 C 231.125 121.707031 230.636719 121.851562 230.125 121.945312 C 224.152344 123.035156 217.910156 123.109375 211.859375 123.335938 C 202.921875 123.65625 193.972656 123.777344 185.03125 123.757812 C 179.222656 123.757812 173.414062 123.675781 167.632812 123.511719 C 167.253906 123.328125 166.871094 123.316406 166.484375 123.476562 C 163.964844 123.402344 161.441406 123.304688 158.914062 123.191406 C 153.980469 122.957031 148.453125 123.097656 143.664062 121.679688 C 143.820312 121.363281 144 121.0625 144.195312 120.777344 Z M 125.1875 150.597656 C 127.769531 146.84375 133.609375 144.453125 138.109375 144.695312 C 135.691406 148.703125 129.566406 151.710938 125.101562 151.035156 C 125.128906 150.886719 125.15625 150.742188 125.1875 150.597656 Z M 123.140625 145.734375 C 122.820312 146.871094 122.558594 148.015625 122.3125 149.171875 C 119.039062 145.84375 118.007812 139.332031 119.421875 134.890625 C 121.929688 137.425781 123.382812 141.914062 123.140625 145.734375 Z M 124.695312 173.054688 C 124.65625 172.757812 124.609375 172.460938 124.5625 172.160156 C 125.101562 167.765625 128.722656 163 132.632812 161.007812 C 132.5625 165.628906 128.921875 171.359375 124.691406 173.042969 Z M 115.71875 186.523438 C 120.007812 186.332031 125.457031 189.042969 127.777344 192.703125 C 127.960938 193.082031 128.160156 193.460938 128.351562 193.839844 C 123.699219 194.015625 118.089844 190.550781 115.71875 186.523438 Z M 131.496094 193.140625 C 131.480469 193.117188 131.46875 193.09375 131.460938 193.070312 C 130.167969 188.628906 132.167969 182.40625 135.488281 179.128906 C 136.847656 183.628906 135.125 190.351562 131.484375 193.140625 Z M 132.8125 195.445312 C 138.160156 191.558594 140.28125 182.011719 137.175781 176.304688 C 137.085938 176.15625 136.96875 176.027344 136.828125 175.921875 C 136.6875 175.816406 136.535156 175.738281 136.363281 175.695312 C 136.195312 175.648438 136.023438 175.640625 135.847656 175.660156 C 135.671875 175.683594 135.511719 175.738281 135.359375 175.828125 C 131.957031 178.210938 129.453125 182.640625 128.679688 187.160156 C 127.625 184.40625 126.714844 181.605469 125.945312 178.761719 C 125.710938 177.914062 125.492188 177.054688 125.300781 176.191406 L 125.195312 175.683594 C 131.472656 173.566406 136.277344 165.078125 135.0625 158.730469 C 135.015625 158.5625 134.9375 158.410156 134.828125 158.273438 C 134.71875 158.132812 134.589844 158.019531 134.4375 157.933594 C 134.285156 157.847656 134.121094 157.792969 133.945312 157.773438 C 133.769531 157.75 133.597656 157.761719 133.429688 157.804688 C 129.65625 158.992188 126.136719 162.183594 123.996094 166 C 123.957031 165.050781 123.933594 164.101562 123.933594 163.152344 C 123.9375 159.960938 124.179688 156.789062 124.671875 153.636719 C 131.066406 154.632812 139.242188 149.96875 141.375 143.976562 C 141.421875 143.808594 141.433594 143.636719 141.410156 143.460938 C 141.386719 143.289062 141.332031 143.125 141.246094 142.972656 C 141.160156 142.820312 141.046875 142.691406 140.90625 142.582031 C 140.769531 142.472656 140.617188 142.394531 140.445312 142.347656 C 136.011719 141.351562 130.441406 142.769531 126.410156 145.738281 C 127.914062 140.535156 130.050781 135.605469 132.816406 130.945312 C 135.582031 126.285156 138.886719 122.042969 142.738281 118.21875 C 142.34375 118.765625 141.960938 119.320312 141.621094 119.890625 C 141.203125 120.585938 140.753906 121.382812 140.777344 122.222656 C 140.777344 122.332031 140.792969 122.4375 140.820312 122.542969 L 140.820312 122.570312 C 141.035156 123.960938 143.167969 124.300781 144.253906 124.5 C 146.863281 124.953125 149.488281 125.253906 152.132812 125.40625 C 155.867188 125.683594 159.605469 125.875 163.347656 126.007812 C 163.417969 127.292969 163.585938 128.5625 163.847656 129.820312 C 163.972656 130.566406 164.152344 131.296875 164.386719 132.015625 C 163.941406 132.328125 163.542969 132.695312 163.195312 133.113281 C 162.84375 133.53125 162.554688 133.988281 162.328125 134.480469 C 162.097656 134.972656 161.9375 135.488281 161.84375 136.023438 C 161.746094 136.558594 161.722656 137.09375 161.769531 137.636719 C 161.976562 140.308594 163.644531 143.144531 166.289062 143.742188 C 166.613281 146.222656 167.0625 148.699219 167.902344 150.941406 C 168.929688 153.609375 170.507812 155.898438 172.640625 157.804688 C 172.714844 159.292969 172.472656 160.699219 171.503906 161.757812 C 171.378906 161.15625 171.3125 160.546875 171.296875 159.929688 C 171.292969 159.621094 171.1875 159.351562 170.984375 159.117188 C 170.78125 158.886719 170.527344 158.746094 170.21875 158.699219 C 169.929688 158.574219 169.636719 158.566406 169.339844 158.671875 C 165.183594 160.003906 161.140625 161.449219 157.4375 163.390625 C 162.507812 159.308594 164.417969 150.058594 161.34375 144.496094 C 161.023438 143.910156 160.101562 143.609375 159.527344 144.019531 C 155.605469 146.804688 152.886719 152.335938 152.683594 157.5625 C 148.898438 153.597656 142.519531 151.246094 137.625 152.511719 C 136.980469 152.679688 136.4375 153.476562 136.695312 154.144531 C 139.160156 160.464844 147.558594 165.835938 154.421875 164.507812 C 154.648438 164.65625 154.894531 164.707031 155.160156 164.667969 C 151.210938 167 147.976562 170.074219 145.457031 173.894531 C 140.242188 181.890625 138.628906 191.480469 137.074219 200.769531 C 135.457031 199.148438 134.035156 197.375 132.800781 195.445312 Z M 155.757812 161.378906 C 154.398438 156.945312 156.363281 150.652344 159.683594 147.335938 C 161.066406 151.816406 159.382812 158.566406 155.746094 161.363281 Z M 152.664062 162.085938 C 148.007812 162.300781 142.359375 158.875 139.957031 154.847656 C 144.667969 154.59375 150.828125 157.859375 152.652344 162.070312 Z M 190.414062 226.445312 C 184.476562 222.960938 178.972656 218.84375 173.5 214.683594 C 172.140625 213.652344 170.8125 215.96875 172.15625 216.972656 C 176.492188 220.265625 180.84375 223.53125 185.414062 226.484375 C 180.839844 226.335938 176.332031 225.707031 171.894531 224.589844 C 167.457031 223.472656 163.1875 221.894531 159.09375 219.859375 C 159.242188 213.8125 159.316406 207.761719 159.316406 201.714844 C 159.316406 200.011719 156.65625 200.007812 156.65625 201.714844 C 156.65625 207.300781 156.59375 212.886719 156.464844 218.46875 C 149.851562 214.78125 144.082031 210.066406 139.160156 204.328125 C 140.773438 194.863281 142.003906 184.863281 147.003906 176.457031 C 149.34375 172.410156 152.511719 169.171875 156.507812 166.734375 C 160.328125 164.441406 164.554688 162.988281 168.769531 161.625 C 170.207031 171.011719 181.390625 176.015625 190.136719 175.085938 C 197.65625 174.292969 205.820312 168.75 206.796875 160.816406 C 209.445312 161.199219 212.023438 161.839844 214.542969 162.742188 C 213.074219 168.019531 211.695312 173.316406 210.402344 178.636719 C 210.398438 178.65625 210.398438 178.679688 210.402344 178.699219 C 208.0625 179.679688 207.515625 182.019531 207.425781 184.316406 C 206.949219 184.453125 206.488281 184.636719 206.046875 184.859375 C 203.199219 186.324219 203.988281 188.953125 204.527344 191.449219 C 202.617188 192.925781 201.78125 195.125 203.628906 197.78125 C 204.042969 198.460938 204.570312 199.035156 205.210938 199.507812 C 203.859375 205.011719 202.089844 210.65625 201.585938 216.265625 C 201.398438 218.339844 201.433594 221.65625 203.039062 223.261719 C 203.617188 223.839844 204.488281 223.996094 205.441406 223.941406 C 200.535156 225.371094 195.527344 226.203125 190.417969 226.429688 Z M 212.257812 219.882812 C 211.609375 220.375 209.675781 220.359375 208.863281 220.507812 C 208.050781 220.65625 206.011719 221.425781 205.210938 221.242188 C 203.4375 220.839844 204.332031 215.425781 204.617188 213.996094 C 205.585938 209.074219 206.878906 204.1875 208.011719 199.296875 C 208.550781 198.957031 209.066406 198.566406 209.691406 198.4375 C 210.304688 198.296875 210.921875 198.285156 211.542969 198.394531 C 210.234375 202.695312 209.570312 207.09375 209.550781 211.585938 C 209.550781 213.085938 209.410156 214.933594 210.960938 215.746094 C 211.925781 216.257812 212.574219 215.800781 212.742188 217.230469 C 212.84375 218.03125 212.84375 219.441406 212.261719 219.867188 Z M 215.246094 220.183594 C 215.566406 218.507812 215.835938 215.636719 214.445312 214.324219 C 213.820312 213.734375 212.742188 213.808594 212.242188 213.203125 C 211.691406 212.542969 212.261719 209.25 212.328125 208.363281 C 212.566406 205.375 213.109375 202.445312 213.964844 199.574219 C 215.492188 200.828125 216.644531 202.820312 217.53125 204.535156 C 217.28125 204.710938 217.113281 204.949219 217.03125 205.242188 C 216.875 205.441406 216.789062 205.671875 216.777344 205.925781 C 216.765625 206.179688 216.832031 206.414062 216.972656 206.628906 C 218.101562 208.554688 219.347656 210.433594 220.664062 212.25 C 220.695312 213.890625 220.730469 215.53125 220.757812 217.164062 C 218.972656 218.257812 217.136719 219.257812 215.246094 220.167969 Z M 250.449219 212.984375 C 250.898438 218.238281 249.804688 226.328125 242.976562 226.160156 C 237.558594 226.039062 233.035156 222.011719 229.402344 218.410156 C 227.152344 216.160156 225.078125 213.757812 223.1875 211.199219 C 223.121094 211.066406 223.035156 210.949219 222.925781 210.847656 C 221.960938 209.523438 221.039062 208.164062 220.167969 206.769531 C 221.347656 206.558594 222.453125 206.148438 223.488281 205.539062 C 224.519531 204.933594 225.410156 204.164062 226.164062 203.234375 C 227.707031 201.304688 228.277344 198.980469 228.527344 196.597656 C 231.207031 199.101562 234.054688 201.402344 237.066406 203.496094 C 237.253906 203.722656 237.484375 203.882812 237.765625 203.976562 C 238.964844 204.792969 240.1875 205.582031 241.4375 206.339844 C 242.902344 207.21875 244.242188 204.925781 242.78125 204.050781 C 241.945312 203.546875 241.132812 203.023438 240.320312 202.496094 C 242.011719 200.777344 243.5 198.898438 244.789062 196.859375 C 247.421875 201.917969 249.953125 207.230469 250.453125 212.96875 Z M 246.984375 193.839844 C 248.785156 189.625 254.921875 186.3125 259.636719 186.523438 C 257.257812 190.5625 251.632812 194.03125 246.984375 193.839844 Z M 246.984375 193.839844 " fill-opacity="1" fill-rule="nonzero"/></g><path fill="#3f2622" d="M 188.644531 204.335938 C 185.785156 203.128906 183.386719 201.320312 181.445312 198.90625 C 180.371094 197.585938 178.5 199.46875 179.5625 200.78125 C 181.660156 203.367188 184.242188 205.316406 187.308594 206.625 C 188.859375 207.28125 190.21875 205 188.644531 204.335938 Z M 188.644531 204.335938 " fill-opacity="1" fill-rule="nonzero"/><path fill="#3f2622" d="M 194.65625 143.964844 C 193.089844 143.769531 191.664062 144.136719 190.21875 144.417969 C 190.09375 144.386719 189.96875 144.375 189.84375 144.386719 C 190.167969 143.351562 189.101562 142.058594 187.957031 142.804688 C 187.246094 143.265625 185.878906 143.375 185.863281 142.140625 C 185.863281 141.496094 186.667969 140.464844 186.933594 139.925781 C 187.582031 138.726562 187.9375 137.449219 188 136.089844 C 188.035156 134.378906 185.371094 134.378906 185.335938 136.089844 C 185.285156 138.691406 182.300781 141 183.324219 143.667969 C 183.375 143.800781 183.433594 143.925781 183.503906 144.046875 C 182.675781 143.902344 181.847656 143.875 181.011719 143.964844 C 178.753906 144.253906 176.949219 145.519531 175.675781 147.34375 C 174.925781 148.414062 174.953125 149.183594 175.675781 148.921875 C 175.785156 148.886719 177.125 148.234375 178.417969 148.757812 C 178.984375 158.023438 195.171875 157.585938 197.292969 148.785156 C 198.261719 148.390625 199.292969 148.804688 199.554688 148.878906 C 200.796875 149.386719 200.84375 148.578125 199.984375 147.34375 C 198.71875 145.523438 196.910156 144.253906 194.65625 143.964844 Z M 181.105469 148.398438 C 182.351562 148.484375 183.621094 148.8125 184.851562 148.972656 C 186.835938 149.105469 188.820312 149.105469 190.800781 148.972656 C 192.09375 148.808594 193.382812 148.460938 194.675781 148.390625 C 193.117188 154.226562 181.667969 154.84375 181.113281 148.414062 Z M 181.105469 148.398438 " fill-opacity="1" fill-rule="nonzero"/><path fill="#3f2622" d="M 180.078125 135.035156 C 181.367188 136.160156 183.242188 134.292969 181.957031 133.164062 C 181.398438 132.65625 180.773438 132.25 180.082031 131.945312 C 179.390625 131.644531 178.667969 131.457031 177.914062 131.386719 C 177.160156 131.316406 176.417969 131.367188 175.679688 131.535156 C 174.945312 131.707031 174.253906 131.992188 173.609375 132.386719 C 172.160156 133.28125 173.492188 135.574219 174.953125 134.671875 C 175.339844 134.421875 175.761719 134.238281 176.207031 134.121094 C 176.65625 134.007812 177.113281 133.964844 177.574219 133.996094 C 178.039062 134.03125 178.484375 134.132812 178.910156 134.3125 C 179.339844 134.488281 179.726562 134.730469 180.078125 135.035156 Z M 180.078125 135.035156 " fill-opacity="1" fill-rule="nonzero"/><path fill="#3f2622" d="M 201.46875 132.386719 C 200.824219 131.992188 200.136719 131.707031 199.398438 131.535156 C 198.664062 131.367188 197.917969 131.316406 197.164062 131.386719 C 196.414062 131.457031 195.691406 131.644531 195 131.945312 C 194.308594 132.25 193.679688 132.65625 193.121094 133.164062 C 191.832031 134.292969 193.726562 136.160156 195.003906 135.035156 C 195.351562 134.730469 195.742188 134.488281 196.167969 134.3125 C 196.597656 134.132812 197.042969 134.03125 197.503906 133.996094 C 197.96875 133.964844 198.421875 134.007812 198.871094 134.121094 C 199.320312 134.238281 199.738281 134.421875 200.128906 134.671875 C 201.585938 135.558594 202.921875 133.28125 201.46875 132.386719 Z M 201.46875 132.386719 " fill-opacity="1" fill-rule="nonzero"/><g fill="#3f2622" fill-opacity="1"><g transform="translate(90.136955, 246.505532)"><g><path d="M 1.5625 0 C 1.457031 0 1.367188 -0.0351562 1.296875 -0.109375 C 1.222656 -0.179688 1.1875 -0.28125 1.1875 -0.40625 L 1.1875 -10.796875 C 1.1875 -10.910156 1.222656 -11.003906 1.296875 -11.078125 C 1.367188 -11.160156 1.457031 -11.203125 1.5625 -11.203125 L 3.328125 -11.203125 C 3.441406 -11.203125 3.535156 -11.160156 3.609375 -11.078125 C 3.691406 -11.003906 3.734375 -10.910156 3.734375 -10.796875 L 3.734375 -6.796875 L 8.0625 -6.796875 L 8.0625 -10.796875 C 8.0625 -10.910156 8.097656 -11.003906 8.171875 -11.078125 C 8.242188 -11.160156 8.335938 -11.203125 8.453125 -11.203125 L 10.203125 -11.203125 C 10.328125 -11.203125 10.425781 -11.160156 10.5 -11.078125 C 10.570312 -11.003906 10.609375 -10.910156 10.609375 -10.796875 L 10.609375 -0.40625 C 10.609375 -0.28125 10.570312 -0.179688 10.5 -0.109375 C 10.425781 -0.0351562 10.328125 0 10.203125 0 L 8.453125 0 C 8.335938 0 8.242188 -0.0351562 8.171875 -0.109375 C 8.097656 -0.179688 8.0625 -0.28125 8.0625 -0.40625 L 8.0625 -4.53125 L 3.734375 -4.53125 L 3.734375 -0.40625 C 3.734375 -0.28125 3.691406 -0.179688 3.609375 -0.109375 C 3.535156 -0.0351562 3.441406 0 3.328125 0 Z M 1.5625 0 "/></g></g></g><g fill="#3f2622" fill-opacity="1"><g transform="translate(108.326109, 246.505532)"><g><path d="M 0.53125 0 C 0.4375 0 0.351562 -0.03125 0.28125 -0.09375 C 0.21875 -0.164062 0.1875 -0.25 0.1875 -0.34375 C 0.1875 -0.394531 0.191406 -0.441406 0.203125 -0.484375 L 4.015625 -10.765625 C 4.046875 -10.878906 4.109375 -10.976562 4.203125 -11.0625 C 4.304688 -11.15625 4.441406 -11.203125 4.609375 -11.203125 L 6.65625 -11.203125 C 6.820312 -11.203125 6.953125 -11.15625 7.046875 -11.0625 C 7.148438 -10.976562 7.222656 -10.878906 7.265625 -10.765625 L 11.0625 -0.484375 C 11.082031 -0.441406 11.09375 -0.394531 11.09375 -0.34375 C 11.09375 -0.25 11.054688 -0.164062 10.984375 -0.09375 C 10.910156 -0.03125 10.828125 0 10.734375 0 L 9.0625 0 C 8.90625 0 8.789062 -0.0351562 8.71875 -0.109375 C 8.644531 -0.179688 8.597656 -0.25 8.578125 -0.3125 L 7.890625 -2.109375 L 3.375 -2.109375 L 2.703125 -0.3125 C 2.671875 -0.25 2.617188 -0.179688 2.546875 -0.109375 C 2.484375 -0.0351562 2.367188 0 2.203125 0 Z M 3.984375 -4.171875 L 7.28125 -4.171875 L 5.625 -8.765625 Z M 3.984375 -4.171875 "/></g></g></g><g fill="#3f2622" fill-opacity="1"><g transform="translate(125.987393, 246.505532)"><g><path d="M 1.5625 0 C 1.457031 0 1.367188 -0.0351562 1.296875 -0.109375 C 1.222656 -0.179688 1.1875 -0.28125 1.1875 -0.40625 L 1.1875 -10.796875 C 1.1875 -10.910156 1.222656 -11.003906 1.296875 -11.078125 C 1.367188 -11.160156 1.457031 -11.203125 1.5625 -11.203125 L 5.828125 -11.203125 C 7.160156 -11.203125 8.207031 -10.894531 8.96875 -10.28125 C 9.738281 -9.664062 10.125 -8.78125 10.125 -7.625 C 10.125 -6.851562 9.9375 -6.203125 9.5625 -5.671875 C 9.195312 -5.148438 8.695312 -4.765625 8.0625 -4.515625 L 10.34375 -0.515625 C 10.375 -0.453125 10.390625 -0.394531 10.390625 -0.34375 C 10.390625 -0.25 10.351562 -0.164062 10.28125 -0.09375 C 10.207031 -0.03125 10.128906 0 10.046875 0 L 8.25 0 C 8.0625 0 7.921875 -0.046875 7.828125 -0.140625 C 7.734375 -0.242188 7.660156 -0.34375 7.609375 -0.4375 L 5.65625 -4.09375 L 3.734375 -4.09375 L 3.734375 -0.40625 C 3.734375 -0.28125 3.691406 -0.179688 3.609375 -0.109375 C 3.535156 -0.0351562 3.441406 0 3.328125 0 Z M 3.734375 -6.125 L 5.796875 -6.125 C 6.367188 -6.125 6.796875 -6.253906 7.078125 -6.515625 C 7.359375 -6.785156 7.5 -7.160156 7.5 -7.640625 C 7.5 -8.128906 7.359375 -8.507812 7.078125 -8.78125 C 6.804688 -9.0625 6.378906 -9.203125 5.796875 -9.203125 L 3.734375 -9.203125 Z M 3.734375 -6.125 "/></g></g></g><g fill="#3f2622" fill-opacity="1"><g transform="translate(143.296761, 246.505532)"><g><path d="M 1.5625 0 C 1.457031 0 1.367188 -0.0351562 1.296875 -0.109375 C 1.222656 -0.179688 1.1875 -0.28125 1.1875 -0.40625 L 1.1875 -10.796875 C 1.1875 -10.910156 1.222656 -11.003906 1.296875 -11.078125 C 1.367188 -11.160156 1.457031 -11.203125 1.5625 -11.203125 L 3.40625 -11.203125 C 3.507812 -11.203125 3.597656 -11.160156 3.671875 -11.078125 C 3.753906 -11.003906 3.796875 -10.910156 3.796875 -10.796875 L 3.796875 -0.40625 C 3.796875 -0.28125 3.753906 -0.179688 3.671875 -0.109375 C 3.597656 -0.0351562 3.507812 0 3.40625 0 Z M 1.5625 0 "/></g></g></g><g fill="#3f2622" fill-opacity="1"><g transform="translate(154.671552, 246.505532)"><g><path d="M 4.5 0 C 4.375 0 4.273438 -0.0351562 4.203125 -0.109375 C 4.128906 -0.179688 4.09375 -0.28125 4.09375 -0.40625 L 4.09375 -3.921875 L 0.359375 -10.6875 C 0.347656 -10.71875 0.332031 -10.742188 0.3125 -10.765625 C 0.300781 -10.796875 0.296875 -10.828125 0.296875 -10.859375 C 0.296875 -10.941406 0.332031 -11.019531 0.40625 -11.09375 C 0.476562 -11.164062 0.554688 -11.203125 0.640625 -11.203125 L 2.359375 -11.203125 C 2.492188 -11.203125 2.601562 -11.160156 2.6875 -11.078125 C 2.769531 -11.003906 2.828125 -10.9375 2.859375 -10.875 L 5.375 -6.484375 L 7.890625 -10.875 C 7.921875 -10.9375 7.976562 -11.003906 8.0625 -11.078125 C 8.144531 -11.160156 8.265625 -11.203125 8.421875 -11.203125 L 10.109375 -11.203125 C 10.203125 -11.203125 10.28125 -11.164062 10.34375 -11.09375 C 10.414062 -11.019531 10.453125 -10.941406 10.453125 -10.859375 C 10.453125 -10.828125 10.445312 -10.796875 10.4375 -10.765625 C 10.4375 -10.742188 10.425781 -10.71875 10.40625 -10.6875 L 6.65625 -3.921875 L 6.65625 -0.40625 C 6.65625 -0.28125 6.617188 -0.179688 6.546875 -0.109375 C 6.472656 -0.0351562 6.375 0 6.25 0 Z M 4.5 0 "/></g></g></g><g fill="#3f2622" fill-opacity="1"><g transform="translate(171.820964, 246.505532)"><g><path d="M 0.53125 0 C 0.4375 0 0.351562 -0.03125 0.28125 -0.09375 C 0.21875 -0.164062 0.1875 -0.25 0.1875 -0.34375 C 0.1875 -0.394531 0.191406 -0.441406 0.203125 -0.484375 L 4.015625 -10.765625 C 4.046875 -10.878906 4.109375 -10.976562 4.203125 -11.0625 C 4.304688 -11.15625 4.441406 -11.203125 4.609375 -11.203125 L 6.65625 -11.203125 C 6.820312 -11.203125 6.953125 -11.15625 7.046875 -11.0625 C 7.148438 -10.976562 7.222656 -10.878906 7.265625 -10.765625 L 11.0625 -0.484375 C 11.082031 -0.441406 11.09375 -0.394531 11.09375 -0.34375 C 11.09375 -0.25 11.054688 -0.164062 10.984375 -0.09375 C 10.910156 -0.03125 10.828125 0 10.734375 0 L 9.0625 0 C 8.90625 0 8.789062 -0.0351562 8.71875 -0.109375 C 8.644531 -0.179688 8.597656 -0.25 8.578125 -0.3125 L 7.890625 -2.109375 L 3.375 -2.109375 L 2.703125 -0.3125 C 2.671875 -0.25 2.617188 -0.179688 2.546875 -0.109375 C 2.484375 -0.0351562 2.367188 0 2.203125 0 Z M 3.984375 -4.171875 L 7.28125 -4.171875 L 5.625 -8.765625 Z M 3.984375 -4.171875 "/></g></g></g><g fill="#3f2622" fill-opacity="1"><g transform="translate(189.482252, 246.505532)"><g><path d="M 1.5625 0 C 1.457031 0 1.367188 -0.0351562 1.296875 -0.109375 C 1.222656 -0.179688 1.1875 -0.28125 1.1875 -0.40625 L 1.1875 -10.796875 C 1.1875 -10.910156 1.222656 -11.003906 1.296875 -11.078125 C 1.367188 -11.160156 1.457031 -11.203125 1.5625 -11.203125 L 3.375 -11.203125 C 3.476562 -11.203125 3.566406 -11.160156 3.640625 -11.078125 C 3.722656 -11.003906 3.765625 -10.910156 3.765625 -10.796875 L 3.765625 -2.15625 L 8.71875 -2.15625 C 8.832031 -2.15625 8.925781 -2.117188 9 -2.046875 C 9.082031 -1.972656 9.125 -1.878906 9.125 -1.765625 L 9.125 -0.40625 C 9.125 -0.28125 9.082031 -0.179688 9 -0.109375 C 8.925781 -0.0351562 8.832031 0 8.71875 0 Z M 1.5625 0 "/></g></g></g><g fill="#3f2622" fill-opacity="1"><g transform="translate(205.287983, 246.505532)"><g><path d="M 1.5625 0 C 1.457031 0 1.367188 -0.0351562 1.296875 -0.109375 C 1.222656 -0.179688 1.1875 -0.28125 1.1875 -0.40625 L 1.1875 -10.796875 C 1.1875 -10.910156 1.222656 -11.003906 1.296875 -11.078125 C 1.367188 -11.160156 1.457031 -11.203125 1.5625 -11.203125 L 3.40625 -11.203125 C 3.507812 -11.203125 3.597656 -11.160156 3.671875 -11.078125 C 3.753906 -11.003906 3.796875 -10.910156 3.796875 -10.796875 L 3.796875 -0.40625 C 3.796875 -0.28125 3.753906 -0.179688 3.671875 -0.109375 C 3.597656 -0.0351562 3.507812 0 3.40625 0 Z M 1.5625 0 "/></g></g></g><g fill="#3f2622" fill-opacity="1"><g transform="translate(216.66278, 246.505532)"><g><path d="M 1.5625 0 C 1.457031 0 1.367188 -0.0351562 1.296875 -0.109375 C 1.222656 -0.179688 1.1875 -0.28125 1.1875 -0.40625 L 1.1875 -10.796875 C 1.1875 -10.910156 1.222656 -11.003906 1.296875 -11.078125 C 1.367188 -11.160156 1.457031 -11.203125 1.5625 -11.203125 L 3.296875 -11.203125 C 3.410156 -11.203125 3.503906 -11.160156 3.578125 -11.078125 C 3.660156 -11.003906 3.703125 -10.910156 3.703125 -10.796875 L 3.703125 -7.15625 L 6.96875 -10.890625 C 7.019531 -10.953125 7.09375 -11.019531 7.1875 -11.09375 C 7.289062 -11.164062 7.425781 -11.203125 7.59375 -11.203125 L 9.546875 -11.203125 C 9.640625 -11.203125 9.71875 -11.164062 9.78125 -11.09375 C 9.851562 -11.019531 9.890625 -10.941406 9.890625 -10.859375 C 9.890625 -10.785156 9.867188 -10.722656 9.828125 -10.671875 L 5.71875 -5.84375 L 10.125 -0.53125 C 10.164062 -0.488281 10.1875 -0.425781 10.1875 -0.34375 C 10.1875 -0.25 10.148438 -0.164062 10.078125 -0.09375 C 10.015625 -0.03125 9.941406 0 9.859375 0 L 7.84375 0 C 7.644531 0 7.5 -0.0390625 7.40625 -0.125 C 7.3125 -0.207031 7.25 -0.265625 7.21875 -0.296875 L 3.703125 -4.40625 L 3.703125 -0.40625 C 3.703125 -0.28125 3.660156 -0.179688 3.578125 -0.109375 C 3.503906 -0.0351562 3.410156 0 3.296875 0 Z M 1.5625 0 "/></g></g></g><g fill="#3f2622" fill-opacity="1"><g transform="translate(233.412283, 246.505532)"><g><path d="M 0.53125 0 C 0.4375 0 0.351562 -0.03125 0.28125 -0.09375 C 0.21875 -0.164062 0.1875 -0.25 0.1875 -0.34375 C 0.1875 -0.394531 0.191406 -0.441406 0.203125 -0.484375 L 4.015625 -10.765625 C 4.046875 -10.878906 4.109375 -10.976562 4.203125 -11.0625 C 4.304688 -11.15625 4.441406 -11.203125 4.609375 -11.203125 L 6.65625 -11.203125 C 6.820312 -11.203125 6.953125 -11.15625 7.046875 -11.0625 C 7.148438 -10.976562 7.222656 -10.878906 7.265625 -10.765625 L 11.0625 -0.484375 C 11.082031 -0.441406 11.09375 -0.394531 11.09375 -0.34375 C 11.09375 -0.25 11.054688 -0.164062 10.984375 -0.09375 C 10.910156 -0.03125 10.828125 0 10.734375 0 L 9.0625 0 C 8.90625 0 8.789062 -0.0351562 8.71875 -0.109375 C 8.644531 -0.179688 8.597656 -0.25 8.578125 -0.3125 L 7.890625 -2.109375 L 3.375 -2.109375 L 2.703125 -0.3125 C 2.671875 -0.25 2.617188 -0.179688 2.546875 -0.109375 C 2.484375 -0.0351562 2.367188 0 2.203125 0 Z M 3.984375 -4.171875 L 7.28125 -4.171875 L 5.625 -8.765625 Z M 3.984375 -4.171875 "/></g></g></g><g fill="#3f2622" fill-opacity="1"><g transform="translate(251.073572, 246.505532)"><g><path d="M 1.5625 0 C 1.457031 0 1.367188 -0.0351562 1.296875 -0.109375 C 1.222656 -0.179688 1.1875 -0.28125 1.1875 -0.40625 L 1.1875 -10.796875 C 1.1875 -10.910156 1.222656 -11.003906 1.296875 -11.078125 C 1.367188 -11.160156 1.457031 -11.203125 1.5625 -11.203125 L 5.828125 -11.203125 C 7.160156 -11.203125 8.207031 -10.894531 8.96875 -10.28125 C 9.738281 -9.664062 10.125 -8.78125 10.125 -7.625 C 10.125 -6.851562 9.9375 -6.203125 9.5625 -5.671875 C 9.195312 -5.148438 8.695312 -4.765625 8.0625 -4.515625 L 10.34375 -0.515625 C 10.375 -0.453125 10.390625 -0.394531 10.390625 -0.34375 C 10.390625 -0.25 10.351562 -0.164062 10.28125 -0.09375 C 10.207031 -0.03125 10.128906 0 10.046875 0 L 8.25 0 C 8.0625 0 7.921875 -0.046875 7.828125 -0.140625 C 7.734375 -0.242188 7.660156 -0.34375 7.609375 -0.4375 L 5.65625 -4.09375 L 3.734375 -4.09375 L 3.734375 -0.40625 C 3.734375 -0.28125 3.691406 -0.179688 3.609375 -0.109375 C 3.535156 -0.0351562 3.441406 0 3.328125 0 Z M 3.734375 -6.125 L 5.796875 -6.125 C 6.367188 -6.125 6.796875 -6.253906 7.078125 -6.515625 C 7.359375 -6.785156 7.5 -7.160156 7.5 -7.640625 C 7.5 -8.128906 7.359375 -8.507812 7.078125 -8.78125 C 6.804688 -9.0625 6.378906 -9.203125 5.796875 -9.203125 L 3.734375 -9.203125 Z M 3.734375 -6.125 "/></g></g></g><g fill="#3f2622" fill-opacity="1"><g transform="translate(268.382943, 246.505532)"><g><path d="M 4.046875 0 C 3.929688 0 3.832031 -0.0351562 3.75 -0.109375 C 3.675781 -0.179688 3.640625 -0.28125 3.640625 -0.40625 L 3.640625 -8.953125 L 0.734375 -8.953125 C 0.628906 -8.953125 0.539062 -8.988281 0.46875 -9.0625 C 0.394531 -9.144531 0.359375 -9.242188 0.359375 -9.359375 L 0.359375 -10.796875 C 0.359375 -10.910156 0.394531 -11.003906 0.46875 -11.078125 C 0.539062 -11.160156 0.628906 -11.203125 0.734375 -11.203125 L 9.125 -11.203125 C 9.238281 -11.203125 9.332031 -11.160156 9.40625 -11.078125 C 9.476562 -11.003906 9.515625 -10.910156 9.515625 -10.796875 L 9.515625 -9.359375 C 9.515625 -9.242188 9.476562 -9.144531 9.40625 -9.0625 C 9.332031 -8.988281 9.238281 -8.953125 9.125 -8.953125 L 6.21875 -8.953125 L 6.21875 -0.40625 C 6.21875 -0.28125 6.179688 -0.179688 6.109375 -0.109375 C 6.035156 -0.0351562 5.941406 0 5.828125 0 Z M 4.046875 0 "/></g></g></g><g fill="#3f2622" fill-opacity="1"><g transform="translate(284.65256, 246.505532)"><g><path d="M 1.453125 -3.3125 C 1.335938 -3.3125 1.242188 -3.347656 1.171875 -3.421875 C 1.097656 -3.503906 1.0625 -3.601562 1.0625 -3.71875 L 1.0625 -10.796875 C 1.0625 -10.910156 1.097656 -11.003906 1.171875 -11.078125 C 1.242188 -11.160156 1.335938 -11.203125 1.453125 -11.203125 L 3.03125 -11.203125 C 3.132812 -11.203125 3.222656 -11.160156 3.296875 -11.078125 C 3.367188 -11.003906 3.40625 -10.910156 3.40625 -10.796875 L 3.40625 -3.71875 C 3.40625 -3.601562 3.367188 -3.503906 3.296875 -3.421875 C 3.222656 -3.347656 3.132812 -3.3125 3.03125 -3.3125 Z M 1.359375 0 C 1.253906 0 1.160156 -0.0351562 1.078125 -0.109375 C 1.003906 -0.179688 0.96875 -0.28125 0.96875 -0.40625 L 0.96875 -2.125 C 0.96875 -2.226562 1.003906 -2.320312 1.078125 -2.40625 C 1.160156 -2.488281 1.253906 -2.53125 1.359375 -2.53125 L 3.09375 -2.53125 C 3.207031 -2.53125 3.300781 -2.488281 3.375 -2.40625 C 3.445312 -2.320312 3.484375 -2.226562 3.484375 -2.125 L 3.484375 -0.40625 C 3.484375 -0.28125 3.445312 -0.179688 3.375 -0.109375 C 3.300781 -0.0351562 3.207031 0 3.09375 0 Z M 1.359375 0 "/></g></g></g></svg>